# AST/ASF file generated using VICON BodyLanguage
# -----------------------------------------------
:version 1.10
:name VICON
:units
  mass 1.0
  length 0.45
  angle deg
:documentation
   .ast/.asf automatically generated from VICON data using
   VICON BodyBuilder and BodyLanguage model FoxedUp or BRILLIANT.MOD
:root
   order TX TY TZ RX RY RZ
   axis XYZ
   position 0 0 0  
   orientation 0 0 0 
:bonedata
  begin
     id 1 
     name lhipjoint
     direction 0.661853 -0.702389 0.261917 
     length 2.64193 
     axis 0 0 0  XYZ
  end
  begin
     id 2 
     name lfemur
     direction 0.34202 -0.939693 0  
     length 7.01722  
     axis 0 0 20  XYZ
    dof rx ry rz
    limits (-160.0 20.0)
           (-70.0 70.0)
           (-60.0 70.0)
  end
  begin
     id 3 
     name ltibia
     direction 0.34202 -0.939693 0   
     length 8.25008   
     axis 0 0 20   XYZ
    dof rx
    limits (-10.0 170.0)
  end
  begin
     id 4 
     name lfoot
     direction 0.0709916 -0.195048 0.978221   
     length 2.31941   
     axis -90 7.62852e-016 20   XYZ
    dof rx rz
    limits (-45.0 90.0)
           (-70.0 20.0)
  end
  begin
     id 5 
     name ltoes
     direction 1.53586e-011 -4.22017e-011 1   
     length 1.16486   
     axis -90 7.62852e-016 20   XYZ
    dof rx
    limits (-90.0 20.0)
  end
  begin
     id 6 
     name rhipjoint
     direction -0.638185 -0.721362 0.268992   
     length 2.57244  
     axis 0 0 0  XYZ 
  end
  begin
     id 7 
     name rfemur
     direction -0.34202 -0.939693 0   
     length 7.07017   
     axis 0 0 -20   XYZ
    dof rx ry rz
    limits (-160.0 20.0)
           (-70.0 70.0)
           (-70.0 60.0)
  end
  begin
     id 8 
     name rtibia
     direction -0.34202 -0.939693 0   
     length 8.20386   
     axis 0 0 -20   XYZ
    dof rx
    limits (-10.0 170.0)
 end
 begin
     id 9 
     name rfoot
     direction -0.0822429 -0.225961 0.970658   
     length 2.32215  
     axis -90 -7.62852e-016 -20   XYZ
    dof rx rz
    limits (-45.0 90.0)
           (-20.0 70.0)
  end
  begin
     id 10 
     name rtoes
     direction -1.53597e-011 -4.21689e-011 1   
     length 1.16333   
     axis -90 -7.62852e-016 -20   XYZ
    dof rx
    limits (-90.0 20.0)
  end
  begin
     id 11 
     name lowerback
     direction -0.0131557 0.998589 -0.0514484   
     length 2.14993   
     axis 0 0 0   XYZ
    dof rx ry rz
    limits (-20.0 45.0)
           (-30.0 30.0)
           (-30.0 30.0)
  end
  begin
     id 12 
     name upperback
     direction -0.000776481 0.999993 0.00352685   
     length 2.15301   
     axis 0 0 0   XYZ
    dof rx ry rz
    limits (-20.0 45.0)
           (-30.0 30.0)
           (-30.0 30.0)
  end
  begin
     id 13 
     name thorax
     direction 0.00438186 0.999609 0.0276143   
     length 2.15424   
     axis 0 0 0   XYZ
    dof rx ry rz
    limits (-20.0 45.0)
           (-30.0 30.0)
           (-30.0 30.0)
  end
  begin
     id 14 
     name lowerneck
     direction -0.0488006 0.998094 0.0377807   
     length 1.90481   
     axis 0 0 0   XYZ
    dof rx ry rz
    limits (-20.0 45.0)
           (-30.0 30.0)
           (-30.0 30.0)
  end
  begin
     id 15 
     name upperneck
     direction 0.0443769 0.990702 -0.12861   
     length 1.91305   
     axis 0 0 0   XYZ
    dof rx ry rz
    limits (-20.0 45.0)
           (-30.0 30.0)
           (-30.0 30.0)
  end
  begin
     id 16
     name head
     direction 0.0165599 0.998647 -0.0492982  
     length 1.92369  
     axis 0 0 0   XYZ
    dof rx ry rz
    limits (-20.0 45.0)
           (-30.0 30.0)
           (-30.0 30.0)
  end
  begin
     id 17 
     name lclavicle
     direction 0.911936 0.410197 -0.0105506  
     length 3.52622  
     axis 0 0 0   XYZ
    dof ry rz
    limits (-20.0 10.0)
           (0.0 20.0)
  end
  begin
     id 18 
     name lhumerus
     direction 1 -4.48974e-011 -2.48591e-028   
     length 5.47651   
     axis 180 -30 -90   XYZ
    dof rx ry rz
    limits (-60.0 90.0)
           (-90.0 90.0)
           (-90.0 90.0)
  end
  begin
     id 19
     name lradius
     direction 1 -4.48938e-011 -4.40099e-027   
     length 3.09058   
     axis 180 -30 -90   XYZ
    dof rx
    limits (-10.0 170.0)
  end
  begin
     id 20
     name lwrist
     direction 1 -4.49042e-011 -2.99852e-027   
     length 1.54529   
     axis 1.95339e-015 90 90   XYZ
    dof ry
    limits (-180.0 0.0)
 end
  begin
     id 21 
     name lhand
     direction 1 -4.48815e-011 -5.98193e-027   
     length 0.771611   
     axis 3.82337e-015 90 90   XYZ
    dof rx rz
    limits (-90.0 90.0)
           (-45.0 45.0)
  end
  begin
     id 22 
     name lfingers
     direction 1 -4.49034e-011 -1.1993e-026   
     length 0.622093   
     axis 7.64668e-015 90 90   XYZ
    dof rx
    limits (0.0 90.0)
  end
  begin
     id 23
     name lthumb
     direction 0.707107 -6.34867e-011 0.707107   
     length 0.893204   
     axis -90 45 -1.62303e-014   XYZ
    dof rx rz
    limits (-45.0 45.0)
           (-45.0 45.0)
  end
  begin
     id 24 
     name rclavicle
     direction -0.93442 0.355634 -0.0195692   
     length 3.62463  
     axis 0 0 0   XYZ 
    dof ry rz
    limits (-10.0 20.0)
           (-20.0 0.0)
  end
  begin
     id 25 
     name rhumerus
     direction -1 -4.48957e-011 -1.19147e-027  
     length 5.14182   
     axis 180 30 90   XYZ
    dof rx ry rz
    limits (-90.0 60.0)
           (-90.0 90.0)
           (-90.0 90.0)
  end
  begin
     id 26 
     name rradius
     direction -1 -4.48952e-011 -3.81062e-027   
     length 3.35565   
     axis 180 30 90   XYZ
    dof rx
    limits (-10.0 170.0)
  end
  begin
     id 27 
     name rwrist
     direction -1 -4.48973e-011 -2.99621e-027   
     length 1.67782   
     axis 1.95339e-015 -90 -90   XYZ
    dof ry
    limits (-180.0 0.0)
  end
  begin
     id 28
     name rhand
     direction -1 -4.48895e-011 -5.98727e-027   
     length 0.801042   
     axis 3.82337e-015 -90 -90   XYZ
    dof rx rz
    limits (-90.0 90.0)
           (-45.0 45.0)
  end
  begin
     id 29
     name rfingers
     direction -1 -4.49065e-011 -1.19972e-026   
     length 0.645821   
     axis 7.64668e-015 -90 -90   XYZ
    dof rx
    limits (0.0 90.0)
  end
  begin
     id 30
     name rthumb
     direction -0.707107 -6.34957e-011 0.707107   
     length 0.927273   
     axis -90 -45 1.62303e-014   XYZ
    dof rx rz
    limits (-45.0 45.0)
           (-45.0 45.0)
  end
:hierarchy
  begin
    root lhipjoint rhipjoint lowerback
    lhipjoint lfemur
    lfemur ltibia
    ltibia lfoot
    lfoot ltoes
    rhipjoint rfemur
    rfemur rtibia
    rtibia rfoot
    rfoot rtoes
    lowerback upperback
    upperback thorax
    thorax lowerneck lclavicle rclavicle
    lowerneck upperneck
    upperneck head
    lclavicle lhumerus
    lhumerus lradius
    lradius lwrist
    lwrist lhand lthumb
    lhand lfingers
    rclavicle rhumerus
    rhumerus rradius
    rradius rwrist
    rwrist rhand rthumb
    rhand rfingers
  end

#!OML:ASF E:\Style4\Style4.ASF
:FULLY-SPECIFIED
:DEGREES
581
root 0.441137 17.5953 -2.99464 1.35894 -22.4802 3.42213
lowerback 15.1396 -3.52469 -2.48283
upperback 8.51561 -5.04021 0.978621
thorax 0.867111 -2.68716 3.1084
lowerneck 1.58411 0.0709705 -6.01309
upperneck 9.20858 0.352988 -3.71275
head 2.65091 -0.156015 -0.159399
rclavicle 8.02096e-014 -3.06128e-014
rhumerus -20.6529 40.6252 -80.472
rradius 80.9375
rwrist -45.8082
rhand -22.1396 17.8992
rfingers 7.12502
rthumb 4.27394 -12.0377
lclavicle 8.02096e-014 -3.06128e-014
lhumerus 17.6318 -65.0385 74.5175
lradius 73.3098
lwrist 65.4912
lhand -22.1732 31.6908
lfingers 7.12502
lthumb 4.2415 61.6284
rfemur -27.0962 12.0026 12.931
rtibia 37.0101
rfoot -13.5308 -2.79762
rtoes -14.317
lfemur -17.832 13.9712 -25.0504
ltibia 36.3528
lfoot -23.9172 15.783
ltoes -8.40728
582
root 0.434816 17.5913 -2.98894 1.37249 -22.5046 3.35475
lowerback 15.1458 -3.54625 -2.65756
upperback 8.5604 -5.09253 0.808771
thorax 0.914987 -2.71697 3.03329
lowerneck 1.55933 0.171973 -6.02237
upperneck 9.08056 0.480442 -3.6583
head 2.61052 -0.0872275 -0.137631
rclavicle -1.30204e-014 -7.25564e-015
rhumerus -22.8262 40.7671 -80.9438
rradius 82.6515
rwrist -45.9479
rhand -22.4883 17.8588
rfingers 7.12502
rthumb 3.93727 -12.0846
lclavicle -1.30204e-014 -7.25564e-015
lhumerus 16.8129 -66.2154 75.0812
lradius 74.4634
lwrist 65.8955
lhand -22.5747 31.4785
lfingers 7.12502
lthumb 3.85378 61.4234
rfemur -27.085 11.9838 13.0335
rtibia 37.0451
rfoot -13.5666 -2.75238
rtoes -14.158
lfemur -17.8735 14.0253 -24.9514
ltibia 36.5263
lfoot -24.0279 15.6834
ltoes -8.28778
583
root 0.427559 17.5868 -2.98361 1.40462 -22.5672 3.2168
lowerback 15.1157 -3.53464 -2.75263
upperback 8.61674 -5.09064 0.648379
thorax 0.983668 -2.71771 2.91359
lowerneck 1.51556 0.24636 -5.96245
upperneck 9.03231 0.582615 -3.68513
head 2.60094 -0.0341481 -0.15429
rclavicle 6.1176e-014 -1.76918e-014
rhumerus -24.9479 40.8186 -81.333
rradius 84.4043
rwrist -46.0562
rhand -22.5684 17.7145
rfingers 7.12502
rthumb 3.8599 -12.2303
lclavicle 6.1176e-014 -1.76918e-014
lhumerus 16.2028 -67.4791 75.4465
lradius 75.6541
lwrist 66.147
lhand -22.9049 31.6076
lfingers 7.12502
lthumb 3.53496 61.5581
rfemur -27.0718 12.0471 13.1965
rtibia 37.1053
rfoot -13.6541 -2.65909
rtoes -13.5038
lfemur -17.8964 14.0984 -24.7747
ltibia 36.683
lfoot -24.1151 15.5948
ltoes -8.03487
584
root 0.421446 17.5813 -2.97995 1.43784 -22.5636 3.08086
lowerback 15.1076 -3.55141 -2.8558
upperback 8.66754 -5.1268 0.498991
thorax 1.0396 -2.7377 2.81663
lowerneck 1.48074 0.341997 -5.96304
upperneck 8.96746 0.708765 -3.6656
head 2.58386 0.030797 -0.145473
rclavicle -7.32739e-014 4.08751e-015
rhumerus -27.0156 40.9238 -81.6922
rradius 86.1907
rwrist -46.2236
rhand -22.6249 17.4172
rfingers 7.12502
rthumb 3.80531 -12.5285
lclavicle -7.32739e-014 4.08751e-015
lhumerus 15.3263 -68.5954 76.1412
lradius 76.8162
lwrist 66.2277
lhand -23.1486 31.9268
lfingers 7.12502
lthumb 3.29957 61.881
rfemur -27.0616 12.0094 13.3667
rtibia 37.1816
rfoot -13.7548 -2.58686
rtoes -13.1355
lfemur -17.9401 14.1093 -24.6028
ltibia 36.8289
lfoot -24.2266 15.5387
ltoes -7.82709
585
root 0.416182 17.5768 -2.97607 1.47995 -22.4775 3.05041
lowerback 15.0743 -3.62018 -3.06851
upperback 8.66776 -5.24317 0.342554
thorax 1.07042 -2.79993 2.78358
lowerneck 1.52519 0.480279 -6.00342
upperneck 8.83535 0.881418 -3.63912
head 2.52927 0.120808 -0.127107
rclavicle -6.13748e-014 -4.47266e-016
rhumerus -29.2126 41.1598 -82.1473
rradius 88.0667
rwrist -46.378
rhand -22.823 17.1656
rfingers 7.12502
rthumb 3.61402 -12.7835
lclavicle -6.13748e-014 -4.47266e-016
lhumerus 14.6107 -69.7217 76.5913
lradius 78.0743
lwrist 66.4442
lhand -23.4029 32.0138
lfingers 7.12502
lthumb 3.05404 61.9717
rfemur -27.1045 11.8671 13.4181
rtibia 37.2589
rfoot -13.81 -2.54794
rtoes -12.7842
lfemur -18.0277 14.0166 -24.5538
ltibia 36.9441
lfoot -24.2421 15.5543
ltoes -8.06421
586
root 0.408606 17.5736 -2.97005 1.47304 -22.4175 3.04714
lowerback 15.0259 -3.63148 -3.2907
upperback 8.68256 -5.28498 0.174991
thorax 1.11938 -2.82566 2.73279
lowerneck 1.5891 0.582591 -6.03737
upperneck 8.6829 1.0022 -3.5851
head 2.46484 0.187311 -0.102191
rclavicle 6.19214e-014 -1.5207e-014
rhumerus -31.4323 41.266 -82.5326
rradius 90.0273
rwrist -46.4442
rhand -22.8769 16.9238
rfingers 7.12502
rthumb 3.56194 -13.0262
lclavicle 6.19214e-014 -1.5207e-014
lhumerus 14.5058 -71.0716 76.4213
lradius 79.4392
lwrist 66.8509
lhand -23.8611 31.7569
lfingers 7.12502
lthumb 2.61154 61.7207
rfemur -27.0799 11.7474 13.4605
rtibia 37.3144
rfoot -13.8244 -2.53185
rtoes -12.5616
lfemur -18.0268 14.0051 -24.5205
ltibia 37.0407
lfoot -24.257 15.4587
ltoes -8.08381
587
root 0.398395 17.5728 -2.96359 1.47698 -22.4009 3.01119
lowerback 14.9561 -3.60388 -3.48388
upperback 8.71037 -5.27143 -0.0113758
thorax 1.18479 -2.8228 2.6372
lowerneck 1.63471 0.653517 -6.08225
upperneck 8.51348 1.07669 -3.43793
head 2.39806 0.233717 -0.0466654
rclavicle 6.41081e-014 -1.27222e-014
rhumerus -33.5596 41.3499 -82.8396
rradius 92.0471
rwrist -46.5868
rhand -22.8972 16.7092
rfingers 7.12502
rthumb 3.54235 -13.2411
lclavicle 6.41081e-014 -1.27222e-014
lhumerus 14.345 -72.3391 76.3502
lradius 80.7883
lwrist 67.101
lhand -24.2691 31.5176
lfingers 7.12502
lthumb 2.21749 61.4859
rfemur -27.0492 11.7225 13.5369
rtibia 37.3606
rfoot -13.8787 -2.55245
rtoes -12.578
lfemur -18.0043 13.9984 -24.4497
ltibia 37.1114
lfoot -24.26 15.4202
ltoes -8.31911
588
root 0.388573 17.5723 -2.95936 1.5265 -22.3356 2.84031
lowerback 14.9137 -3.60367 -3.59382
upperback 8.73757 -5.28346 -0.118762
thorax 1.23693 -2.8316 2.58303
lowerneck 1.65869 0.740613 -6.19105
upperneck 8.32037 1.17495 -3.3067
head 2.32713 0.290011 0.0146239
rclavicle 9.75039e-014 -3.08116e-014
rhumerus -35.6314 41.5054 -83.0943
rradius 94.055
rwrist -46.7005
rhand -23.0794 16.5941
rfingers 7.12502
rthumb 3.36644 -13.359
lclavicle 9.75039e-014 -3.08116e-014
lhumerus 13.6398 -73.3699 76.9392
lradius 82.0955
lwrist 67.0447
lhand -24.5038 31.3612
lfingers 7.12502
lthumb 1.99079 61.3316
rfemur -26.9904 11.7165 13.7589
rtibia 37.3733
rfoot -13.9063 -2.6436
rtoes -12.4987
lfemur -18.0033 13.9161 -24.2321
ltibia 37.1846
lfoot -24.2846 15.4498
ltoes -8.77155
589
root 0.383395 17.5718 -2.95625 1.59767 -22.1804 2.76852
lowerback 14.8056 -3.60945 -3.66351
upperback 8.74603 -5.29543 -0.262411
thorax 1.29593 -2.83711 2.46486
lowerneck 1.67411 0.799033 -6.23917
upperneck 8.13364 1.24062 -3.24546
head 2.26093 0.329981 0.0428158
rclavicle 7.95139e-014 -6.24184e-014
rhumerus -37.697 41.5006 -83.3315
rradius 96.0378
rwrist -46.5972
rhand -23.0976 16.4463
rfingers 7.12502
rthumb 3.34887 -13.5071
lclavicle 7.95139e-014 -6.24184e-014
lhumerus 13.094 -74.5025 77.4425
lradius 83.4383
lwrist 66.9439
lhand -24.6385 31.3231
lfingers 7.12502
lthumb 1.86069 61.2947
rfemur -26.9965 11.5727 13.8473
rtibia 37.3792
rfoot -13.9217 -2.61631
rtoes -12.1889
lfemur -18.0857 13.6955 -24.1519
ltibia 37.2578
lfoot -24.3501 15.4764
ltoes -8.82573
590
root 0.384565 17.5722 -2.94896 1.72604 -21.7535 2.69524
lowerback 14.6245 -3.76056 -3.56798
upperback 8.73611 -5.47424 -0.437959
thorax 1.36496 -2.91789 2.23756
lowerneck 1.64739 0.893581 -6.23902
upperneck 8.00893 1.36012 -3.18037
head 2.22207 0.39537 0.0650298
rclavicle 7.15625e-014 -1.98785e-014
rhumerus -39.5878 41.5385 -83.5107
rradius 97.9679
rwrist -46.3047
rhand -23.0019 16.165
rfingers 7.12502
rthumb 3.44128 -13.7869
lclavicle 7.15625e-014 -1.98785e-014
lhumerus 12.8832 -75.6104 77.4721
lradius 84.9802
lwrist 67.1571
lhand -25.2202 31.211
lfingers 7.12502
lthumb 1.29888 61.1868
rfemur -26.9947 11.1359 13.9109
rtibia 37.3697
rfoot -13.9926 -2.57559
rtoes -12.2491
lfemur -18.2752 13.2398 -24.113
ltibia 37.3733
lfoot -24.3654 15.4536
ltoes -8.46278
591
root 0.389379 17.5732 -2.93904 1.79467 -20.9249 2.59784
lowerback 14.5446 -4.09061 -3.37719
upperback 8.72648 -5.87877 -0.593582
thorax 1.38549 -3.10699 2.01293
lowerneck 1.66506 1.02703 -6.25866
upperneck 7.83539 1.52508 -3.1111
head 2.15841 0.484861 0.0918722
rclavicle -4.35338e-014 -8.34896e-015
rhumerus -41.3443 41.6819 -83.6722
rradius 99.7534
rwrist -45.936
rhand -22.719 16.2346
rfingers 7.12502
rthumb 3.7145 -13.7128
lclavicle -4.35338e-014 -8.34896e-015
lhumerus 12.5692 -76.5849 77.5779
lradius 86.6076
lwrist 67.6637
lhand -26.3075 30.8141
lfingers 7.12502
lthumb 0.248712 60.7937
rfemur -26.8052 10.4417 14.0143
rtibia 37.3417
rfoot -14.0967 -2.68708
rtoes -12.2475
lfemur -18.3811 12.4609 -24.0304
ltibia 37.4606
lfoot -24.2904 15.3743
ltoes -8.30441
